<svg width="183" height="27" viewBox="0 0 183 27" fill="none" xmlns="http://www.w3.org/2000/svg">
<g clip-path="url(#clip0)">
<path d="M162.748 5.06677H169.28L169.302 25.0666C169.302 25.3233 169.511 25.5349 169.77 25.5349L173.511 25.5319C173.77 25.5319 173.979 25.3229 173.979 25.0636L173.958 5.06641H182.15C182.391 5.06641 182.528 4.78597 182.375 4.59811L179.57 1.08974C179.454 0.944711 179.307 0.82756 179.14 0.746956C178.973 0.666352 178.79 0.624352 178.604 0.624062H162.748C162.489 0.624062 162.28 0.833087 162.28 1.09238V4.60075C162.28 4.85475 162.489 5.06641 162.748 5.06641V5.06677ZM5.09323 25.0693L24.2544 1.09274C24.4052 0.904875 24.2702 0.62442 24.0295 0.62442H19.2379C18.8621 0.62442 18.505 0.79639 18.2721 1.09008L4.67783 18.0975V1.09008C4.67783 0.83079 4.46881 0.621773 4.20952 0.621773H0.468311C0.209019 0.621773 0 0.83079 0 1.09008V25.0666C0 25.3259 0.209019 25.5349 0.468311 25.5349H4.1275C4.50321 25.5349 4.85775 25.363 5.09323 25.0693ZM18.6029 25.0693L25.1936 16.8222L31.7844 25.0693C31.9005 25.2146 32.0479 25.3319 32.2155 25.4125C32.3831 25.4931 32.5668 25.5349 32.7528 25.5349H36.412C36.6713 25.5349 36.8803 25.3259 36.8803 25.0666V1.09008C36.8803 0.83344 36.6713 0.621773 36.412 0.621773H33.3428C32.5914 0.621773 31.8796 0.963081 31.4087 1.55046L12.618 25.064C12.4672 25.2518 12.6021 25.5323 12.8429 25.5323H17.6345C18.0128 25.5353 18.3674 25.363 18.6029 25.0693V25.0693ZM32.1998 7.55122V18.5976L27.7865 13.0757L32.1998 7.55122ZM139.189 25.064L120.028 1.08744C119.912 0.942414 119.766 0.825271 119.598 0.744667C119.431 0.664063 119.248 0.622064 119.062 0.621773H115.401C115.141 0.621773 114.932 0.83079 114.932 1.09008V25.0666C114.932 25.3259 115.141 25.5349 115.401 25.5349H119.06C119.436 25.5349 119.793 25.363 120.026 25.0693L126.616 16.8222L133.207 25.0693C133.323 25.2143 133.47 25.3314 133.637 25.412C133.804 25.4926 133.987 25.5346 134.173 25.5349H138.964C139.205 25.5349 139.34 25.2545 139.189 25.064V25.064ZM124.021 13.0757L119.605 18.6002V7.55122L124.021 13.0757ZM71.292 0C64.0689 0 58.2136 5.85523 58.2136 13.0783C58.2136 20.3015 64.0689 26.1567 71.292 26.1567C78.5151 26.1567 84.3703 20.3015 84.3703 13.0783C84.3729 5.85523 78.5151 0 71.292 0V0ZM71.292 21.7117C66.6512 21.7117 62.8915 17.8461 62.8915 13.0783C62.8915 8.31056 66.6512 4.44235 71.292 4.44235C75.9328 4.44235 79.6925 8.30791 79.6925 13.0783C79.6951 17.8461 75.9328 21.7117 71.292 21.7117ZM154.353 1.09008V18.0975L140.758 1.08744C140.643 0.942414 140.496 0.825271 140.328 0.744667C140.161 0.664063 139.978 0.622064 139.793 0.621773H136.128C135.871 0.621773 135.66 0.83079 135.66 1.09008V12.6444C135.66 12.9249 135.755 13.1974 135.932 13.417L139.824 18.288C139.996 18.5023 140.34 18.3806 140.34 18.1081V8.05392L153.937 25.0693C154.053 25.2143 154.2 25.3314 154.367 25.412C154.534 25.4926 154.717 25.5346 154.903 25.5349H158.562C158.821 25.5349 159.03 25.3259 159.03 25.0666V1.09008C159.03 0.83344 158.821 0.621773 158.562 0.621773H154.821C154.562 0.621773 154.353 0.83344 154.353 1.09008V1.09008ZM108.643 6.28651V1.09008C108.643 0.83079 108.434 0.621773 108.175 0.621773H89.027C88.7677 0.621773 88.5587 0.83079 88.5587 1.09008V25.0666C88.5587 25.3259 88.7677 25.5349 89.027 25.5349H92.7682C93.0275 25.5349 93.2365 25.3259 93.2365 25.0666V5.06941H103.965L96.7237 14.134C96.5888 14.3034 96.5888 14.5468 96.7237 14.7188L104.997 25.0719C105.113 25.2169 105.26 25.3341 105.427 25.4147C105.594 25.4953 105.777 25.5373 105.963 25.5376H110.755C110.995 25.5376 111.13 25.2571 110.979 25.0693L102.476 14.4304L108.371 7.06438C108.545 6.83949 108.643 6.56697 108.643 6.28651V6.28651ZM42.9657 25.5349H54.0676C54.4433 25.5349 54.8005 25.363 55.0333 25.0693L57.8379 21.5583C57.9887 21.3704 57.8538 21.0899 57.613 21.0899H47.1752V1.09008C47.1752 0.83079 46.9662 0.621773 46.7069 0.621773H42.9657C42.7064 0.621773 42.4974 0.83079 42.4974 1.09008V25.0666C42.4974 25.3233 42.709 25.5349 42.9657 25.5349" fill="white"/>
</g>
<defs>
<clipPath id="clip0">
<rect width="182.439" height="26.1567" fill="white"/>
</clipPath>
</defs>
</svg>
